<?xml version="1.0" standalone="no"?>
<!DOCTYPE svg PUBLIC "-//W3C//DTD SVG 20010904//EN"
 "http://www.w3.org/TR/2001/REC-SVG-20010904/DTD/svg10.dtd">
<svg version="1.0" xmlns="http://www.w3.org/2000/svg"
 width="129.000000pt" height="129.000000pt" viewBox="0 0 129.000000 129.000000"
 preserveAspectRatio="xMidYMid meet">

<g transform="translate(0.000000,129.000000) scale(0.100000,-0.100000)"
fill="#000000" stroke="none">
<path d="M485 1231 c-141 -41 -283 -147 -353 -264 -78 -129 -108 -296 -78
-435 48 -225 223 -409 443 -466 78 -20 218 -20 296 0 142 36 293 147 365 267
78 130 108 296 78 437 -47 223 -223 407 -443 464 -81 21 -230 20 -308 -3z
m305 -121 c239 -70 388 -333 325 -575 -31 -119 -120 -240 -222 -302 -139 -85
-357 -85 -496 0 -102 62 -191 183 -222 302 -59 228 73 483 292 565 111 41 204
44 323 10z"/>
<path d="M407 884 c-4 -4 -7 -31 -7 -61 l0 -53 245 0 246 0 -3 58 -3 57 -236
3 c-129 1 -238 -1 -242 -4z"/>
<path d="M400 645 l0 -55 245 0 245 0 0 55 0 55 -245 0 -245 0 0 -55z"/>
<path d="M402 463 l3 -58 240 0 240 0 3 58 3 57 -246 0 -246 0 3 -57z"/>
</g>
</svg>
